<svg xmlns="http://www.w3.org/2000/svg" viewBox="0 0 64 64">
  <ellipse cx="32" cy="34" rx="16" ry="18" fill="#f59e0b"/>
  <ellipse cx="32" cy="34" rx="16" ry="18" fill="none" stroke="#92400e" stroke-width="1.5"/>
  <rect x="20" y="28" width="24" height="4" rx="1" fill="#1c1917"/>
  <rect x="20" y="36" width="24" height="4" rx="1" fill="#1c1917"/>
  <rect x="20" y="44" width="24" height="4" rx="1" fill="#1c1917"/>
  <circle cx="32" cy="18" r="10" fill="#f59e0b"/>
  <circle cx="32" cy="18" r="10" fill="none" stroke="#92400e" stroke-width="1.5"/>
  <circle cx="28" cy="16" r="2.5" fill="#1c1917"/>
  <circle cx="36" cy="16" r="2.5" fill="#1c1917"/>
  <circle cx="28.5" cy="15.5" r="0.8" fill="#fff"/>
  <circle cx="36.5" cy="15.5" r="0.8" fill="#fff"/>
  <path d="M29 21 Q32 24 35 21" fill="none" stroke="#92400e" stroke-width="1.2" stroke-linecap="round"/>
  <line x1="26" y1="10" x2="24" y2="4" stroke="#1c1917" stroke-width="1.5" stroke-linecap="round"/>
  <circle cx="24" cy="3" r="1.5" fill="#1c1917"/>
  <line x1="38" y1="10" x2="40" y2="4" stroke="#1c1917" stroke-width="1.5" stroke-linecap="round"/>
  <circle cx="40" cy="3" r="1.5" fill="#1c1917"/>
  <ellipse cx="20" cy="26" rx="10" ry="6" fill="#e0f2fe" opacity="0.7" transform="rotate(-30 20 26)"/>
  <ellipse cx="44" cy="26" rx="10" ry="6" fill="#e0f2fe" opacity="0.7" transform="rotate(30 44 26)"/>
  <ellipse cx="20" cy="26" rx="10" ry="6" fill="none" stroke="#93c5fd" stroke-width="0.8" transform="rotate(-30 20 26)"/>
  <ellipse cx="44" cy="26" rx="10" ry="6" fill="none" stroke="#93c5fd" stroke-width="0.8" transform="rotate(30 44 26)"/>
  <path d="M32 52 L30 58 Q32 60 34 58 Z" fill="#1c1917"/>
</svg>
